<?xml version="1.0" encoding="UTF-8"?>
<svg xmlns="http://www.w3.org/2000/svg" viewBox="100 0 900 1024">
  <defs>
    <style>
      .st0 { fill: #ffb6c1; }
      .st1 { fill: #7dc8e5; }
    </style>
  </defs>
  <g>
    <path class="st1" d="M856.09,310.87h119.33c-15.77-40.47-37.6-78.31-64.75-112.21-25-31.52-54.41-59.28-87.32-82.42-31.81-22.13-66.68-39.48-103.51-51.53-36.21-11.88-73.86-18.82-111.93-20.63,53.84,24.04,102.69,57.96,144.03,100,46.16,47.57,81.67,104.43,104.16,166.79Z"/>
    <path class="st1" d="M775.06,793.78c-52.38,44.33-119.09,68.1-187.69,66.88-34.51-.2-68.63-7.41-100.28-21.18-34.05-14.57-64.86-35.77-90.65-62.35-28.1-29.3-50.11-63.89-64.75-101.76-17.81-43.66-26.56-90.5-25.72-137.65-.57-42.06,5.87-83.92,19.06-123.86,11.87-35.49,29.94-68.6,53.38-97.78,22.12-27.36,49.44-50.06,80.39-66.79,31.15-16.8,65.21-27.51,100.37-31.54-15.74-9.18-32.59-16.3-50.14-21.18-16.81-4.69-34.17-7.09-51.62-7.12-35.73-.06-70.97,8.31-102.87,24.42-33.16,16.73-62.49,40.17-86.12,68.82-26.13,31.75-46.4,67.9-59.85,106.75-15.53,44.84-23.14,92.05-22.48,139.5-1.04,63.65,10.08,126.91,32.75,186.4,19.87,51.65,49.84,98.83,88.16,138.76,36.68,37.59,80.79,67.14,129.51,86.77,49.59,20.24,102.68,30.52,156.24,30.25,41.4-.06,82.55-6.3,122.11-18.5,39.64-11.98,77.12-30.21,111.01-54.02,34.63-24.37,65.22-54.02,90.65-87.88,27.6-36.91,49.69-77.64,65.59-120.9l-99.17-88.9c-18.5,84.36-54.45,148.66-107.86,192.87Z"/>
    <path class="st1" d="M229.28,810.7c-25.21-39.4-44.51-82.28-57.26-127.29-14.1-50.2-21.01-102.15-20.54-154.3-.53-50.93,7.51-101.59,23.77-149.86,14.34-43.13,36.58-83.22,65.59-118.22,26.81-32.17,59.81-58.62,97.04-77.8,36.59-18.8,77.18-28.51,118.31-28.31,29.79.12,59.26,6.06,86.77,17.48,29.42,11.99,56.44,29.19,79.74,50.79,25.35,23.45,46.84,50.77,63.64,80.94,18.67,33.38,32.52,69.22,41.16,106.47l97.69-88.71c-29.1-80.31-81.19-150.28-149.77-201.2-32.15-24-67.69-43.08-105.46-56.61-36.49-13.18-74.98-19.94-113.78-19.98-59.49-.76-118.4,11.89-172.34,37-51.51,24.33-97.29,59.29-134.32,102.59-38.13,44.72-67.56,96.17-86.77,151.71-20.86,59.27-31.31,121.71-30.9,184.55-1.27,64.99,10.07,129.61,33.39,190.28,20.25,51.59,50.39,98.72,88.71,138.76,35.61,36.89,77.97,66.6,124.79,87.51,45.08,20.34,93.4,32.52,142.74,35.98-79.05-33.1-146.12-89.55-192.23-161.79Z"/>
  </g>
  <circle class="st0" cx="564.33" cy="531.46" r="109.79"/>
</svg>
